<svg xmlns="http://www.w3.org/2000/svg" viewBox="0 0 32 32" aria-hidden="true" role="presentation" focusable="false" style="display: block; height: 24px; width: 24px;"><path d="m16 .8.56.37C20.4 3.73 24.2 5 28 5h1v12.5C29 25.57 23.21 31 16 31S3 25.57 3 17.5V5h1c3.8 0 7.6-1.27 11.45-3.83L16 .8zm0 2.4-.34.2a22.58 22.58 0 0 1-10.3 3.55L5 6.97V17.5C5 24.33 9.72 28.86 15.71 29H16c6.13 0 11-4.56 11-11.5V6.97l-.35-.02a22.58 22.58 0 0 1-10.31-3.54L16 3.19zm7 7.39L24.41 12 13.5 22.91 7.59 17 9 15.59l4.5 4.5 9.5-9.5z"></path></svg>