<svg xmlns="http://www.w3.org/2000/svg" viewBox="0 0 32 32" aria-hidden="true" role="presentation" focusable="false" style="display: block; height: 24px; width: 24px; fill: currentcolor;"><path d="M22.87 18.98a62.1 62.1 0 0 0-2.55-1.21c-.34-.12-.59-.19-.84.19-.25.37-.96 1.2-1.18 1.45-.22.25-.43.28-.8.1-.38-.2-1.58-.58-3-1.85a11.16 11.16 0 0 1-2.08-2.57c-.22-.37-.03-.57.16-.76.17-.17.37-.43.56-.65.19-.22.25-.37.37-.62.13-.25.06-.47-.03-.65-.1-.19-.84-2.02-1.15-2.76-.3-.72-.61-.63-.84-.64a16.1 16.1 0 0 0-.72-.01c-.24 0-.65.1-1 .47-.33.37-1.3 1.27-1.3 3.1 0 1.82 1.34 3.59 1.53 3.84.18.24 2.63 4 6.37 5.6.9.39 1.59.61 2.13.79.9.28 1.7.24 2.35.14.72-.1 2.2-.9 2.52-1.76.31-.87.31-1.61.22-1.77-.1-.15-.34-.25-.72-.43m-6.8 9.25h-.01c-2.23 0-4.41-.6-6.32-1.72l-.45-.27-4.7 1.23 1.25-4.56-.3-.47a12.28 12.28 0 0 1-1.9-6.57A12.4 12.4 0 0 1 16.08 3.5a12.36 12.36 0 0 1 8.78 3.62 12.25 12.25 0 0 1 3.63 8.75 12.4 12.4 0 0 1-12.42 12.35M26.63 5.36A14.88 14.88 0 0 0 16.06 1 14.92 14.92 0 0 0 1.13 15.87a14.78 14.78 0 0 0 1.99 7.43L1 31l7.92-2.07a14.98 14.98 0 0 0 7.14 1.81C24.3 30.74 31 24.07 31 15.88a14.74 14.74 0 0 0-4.37-10.52"></path></svg>